HIERARCHY
ROOT Hips
{
  OFFSET 0 0 0
  CHANNELS 6 Xposition Yposition Zposition Zrotation Xrotation Yrotation
  JOINT RightUpLeg
  {
    OFFSET -9.32484 -1.5452 -0.0327167
    CHANNELS 3 Zrotation Xrotation Yrotation
    JOINT RightLeg
    {
      OFFSET -0.0645411 -41.8753 0.0945092
      CHANNELS 3 Zrotation Xrotation Yrotation
      JOINT RightFoot
      {
        OFFSET 0.259615 -41.3232 -0.503108
        CHANNELS 3 Zrotation Xrotation Yrotation
        End Site
        {
          OFFSET 0 -7.69 17.5
        }
      }
    }
  }
  JOINT LeftUpLeg
  {
    OFFSET 9.30493 -1.6128 -0.0386746
    CHANNELS 3 Zrotation Xrotation Yrotation
    JOINT LeftLeg
    {
      OFFSET 0.103013 -41.8793 -0.110338
      CHANNELS 3 Zrotation Xrotation Yrotation
      JOINT LeftFoot
      {
        OFFSET -0.0724631 -42.2968 0.379602
        CHANNELS 3 Zrotation Xrotation Yrotation
        End Site
        {
          OFFSET 0 -7.69 17.5
        }
      }
    }
  }
  JOINT Spine
  {
    OFFSET 0.0608374 14.3028 0.0348281
    CHANNELS 3 Zrotation Xrotation Yrotation
    JOINT Spine1
    {
      OFFSET 0.0519987 9.71902 0.0176487
      CHANNELS 3 Zrotation Xrotation Yrotation
      JOINT Spine2
      {
        OFFSET -0.0041249 10.1114 -0.00162228
        CHANNELS 3 Zrotation Xrotation Yrotation
        JOINT Spine3
        {
          OFFSET 0.0130957 9.71254 -0.0010762
          CHANNELS 3 Zrotation Xrotation Yrotation
          JOINT Neck
          {
            OFFSET 0.0257623 10.3752 -0.00952888
            CHANNELS 3 Zrotation Xrotation Yrotation
            JOINT Head
            {
              OFFSET 0.0279596 9.4733 -0.0202242
              CHANNELS 3 Zrotation Xrotation Yrotation
              End Site
              {
                OFFSET 0 15.95 0
              }
            }
          }
          JOINT RightShoulder
          {
            OFFSET -3.14702 6.94114 0.0203724
            CHANNELS 3 Zrotation Xrotation Yrotation
            JOINT RightArm
            {
              OFFSET -12.8372 0.0377774 0.0444165
              CHANNELS 3 Zrotation Xrotation Yrotation
              JOINT RightForeArm
              {
                OFFSET -26.5171 0.0633612 0.0743204
                CHANNELS 3 Zrotation Xrotation Yrotation
                JOINT RightHand
                {
                  OFFSET -25.9764 -0.0637705 0.00831415
                  CHANNELS 3 Zrotation Xrotation Yrotation
                  JOINT RightHandThumb1
                  {
                    OFFSET -2.48905 0.190105 3.12053
                    CHANNELS 3 Zrotation Xrotation Yrotation
                    JOINT RightHandThumb2
                    {
                      OFFSET -3.68274 0 0
                      CHANNELS 3 Zrotation Xrotation Yrotation
                      JOINT RightHandThumb3
                      {
                        OFFSET -2.55832 0 0
                        CHANNELS 3 Zrotation Xrotation Yrotation
                        End Site
                        {
                          OFFSET -2.194 0 0
                        }
                      }
                    }
                  }
                  JOINT RightInHandIndex
                  {
                    OFFSET -3.22368 0.508421 1.97842
                    CHANNELS 3 Zrotation Xrotation Yrotation
                    JOINT RightHandIndex1
                    {
                      OFFSET -5.21684 -0.091368 0.999158
                      CHANNELS 3 Zrotation Xrotation Yrotation
                      JOINT RightHandIndex2
                      {
                        OFFSET -3.61937 0 0
                        CHANNELS 3 Zrotation Xrotation Yrotation
                        JOINT RightHandIndex3
                        {
                          OFFSET -2.0521 0 0
                          CHANNELS 3 Zrotation Xrotation Yrotation
                          End Site
                          {
                            OFFSET -1.805 0 0
                          }
                        }
                      }
                    }
                  }
                  JOINT RightInHandMiddle
                  {
                    OFFSET -3.38211 0.517263 0.756737
                    CHANNELS 3 Zrotation Xrotation Yrotation
                    JOINT RightHandMiddle1
                    {
                      OFFSET -5.17411 -0.084 0.313895
                      CHANNELS 3 Zrotation Xrotation Yrotation
                      JOINT RightHandMiddle2
                      {
                        OFFSET -3.94947 0 0
                        CHANNELS 3 Zrotation Xrotation Yrotation
                        JOINT RightHandMiddle3
                        {
                          OFFSET -2.47579 0 0
                          CHANNELS 3 Zrotation Xrotation Yrotation
                          End Site
                          {
                            OFFSET -1.975 0 0
                          }
                        }
                      }
                    }
                  }
                  JOINT RightInHandRing
                  {
                    OFFSET -3.36516 0.537895 -0.128947
                    CHANNELS 3 Zrotation Xrotation Yrotation
                    JOINT RightHandRing1
                    {
                      OFFSET -4.63474 -0.022105 -0.478947
                      CHANNELS 3 Zrotation Xrotation Yrotation
                      JOINT RightHandRing2
                      {
                        OFFSET -3.44238 0 0
                        CHANNELS 3 Zrotation Xrotation Yrotation
                        JOINT RightHandRing3
                        {
                          OFFSET -2.3881 0 0
                          CHANNELS 3 Zrotation Xrotation Yrotation
                          End Site
                          {
                            OFFSET -1.857 0 0
                          }
                        }
                      }
                    }
                  }
                  JOINT RightInHandPinky
                  {
                    OFFSET -3.16105 0.469368 -1.20179
                    CHANNELS 3 Zrotation Xrotation Yrotation
                    JOINT RightHandPinky1
                    {
                      OFFSET -4.14105 -0.022105 -1.09053
                      CHANNELS 3 Zrotation Xrotation Yrotation
                      JOINT RightHandPinky2
                      {
                        OFFSET -2.75653 0 0
                        CHANNELS 3 Zrotation Xrotation Yrotation
                        JOINT RightHandPinky3
                        {
                          OFFSET -1.74189 0 0
                          CHANNELS 3 Zrotation Xrotation Yrotation
                          End Site
                          {
                            OFFSET -1.645 0 0
                          }
                        }
                      }
                    }
                  }
                  JOINT Props0
                  {
                    OFFSET 0 0 0
                    CHANNELS 3 Zrotation Xrotation Yrotation
                    End Site
                    {
                      OFFSET -30 0 50
                    }
                  }
                }
              }
            }
          }
          JOINT LeftShoulder
          {
            OFFSET 3.19692 6.91464 0.00619208
            CHANNELS 3 Zrotation Xrotation Yrotation
            JOINT LeftArm
            {
              OFFSET 12.7837 -0.0435162 -0.0410453
              CHANNELS 3 Zrotation Xrotation Yrotation
              JOINT LeftForeArm
              {
                OFFSET 26.4865 -0.0690586 -0.0177828
                CHANNELS 3 Zrotation Xrotation Yrotation
                JOINT LeftHand
                {
                  OFFSET 26.0204 -0.0993977 0.0014351
                  CHANNELS 3 Zrotation Xrotation Yrotation
                  JOINT LeftHandThumb1
                  {
                    OFFSET 2.48905 0.190105 3.12053
                    CHANNELS 3 Zrotation Xrotation Yrotation
                    JOINT LeftHandThumb2
                    {
                      OFFSET 3.68274 0 0
                      CHANNELS 3 Zrotation Xrotation Yrotation
                      JOINT LeftHandThumb3
                      {
                        OFFSET 2.55832 0 0
                        CHANNELS 3 Zrotation Xrotation Yrotation
                        End Site
                        {
                          OFFSET 2.194 0 0
                        }
                      }
                    }
                  }
                  JOINT LeftInHandIndex
                  {
                    OFFSET 3.22368 0.508421 1.97842
                    CHANNELS 3 Zrotation Xrotation Yrotation
                    JOINT LeftHandIndex1
                    {
                      OFFSET 5.21684 -0.091368 0.999158
                      CHANNELS 3 Zrotation Xrotation Yrotation
                      JOINT LeftHandIndex2
                      {
                        OFFSET 3.61937 0 0
                        CHANNELS 3 Zrotation Xrotation Yrotation
                        JOINT LeftHandIndex3
                        {
                          OFFSET 2.0521 0 0
                          CHANNELS 3 Zrotation Xrotation Yrotation
                          End Site
                          {
                            OFFSET 1.805 0 0
                          }
                        }
                      }
                    }
                  }
                  JOINT LeftInHandMiddle
                  {
                    OFFSET 3.38211 0.517263 0.756737
                    CHANNELS 3 Zrotation Xrotation Yrotation
                    JOINT LeftHandMiddle1
                    {
                      OFFSET 5.17411 -0.084 0.313895
                      CHANNELS 3 Zrotation Xrotation Yrotation
                      JOINT LeftHandMiddle2
                      {
                        OFFSET 3.94947 0 0
                        CHANNELS 3 Zrotation Xrotation Yrotation
                        JOINT LeftHandMiddle3
                        {
                          OFFSET 2.47579 0 0
                          CHANNELS 3 Zrotation Xrotation Yrotation
                          End Site
                          {
                            OFFSET 1.975 0 0
                          }
                        }
                      }
                    }
                  }
                  JOINT LeftInHandRing
                  {
                    OFFSET 3.36516 0.537895 -0.128947
                    CHANNELS 3 Zrotation Xrotation Yrotation
                    JOINT LeftHandRing1
                    {
                      OFFSET 4.63474 -0.022105 -0.478947
                      CHANNELS 3 Zrotation Xrotation Yrotation
                      JOINT LeftHandRing2
                      {
                        OFFSET 3.44238 0 0
                        CHANNELS 3 Zrotation Xrotation Yrotation
                        JOINT LeftHandRing3
                        {
                          OFFSET 2.3881 0 0
                          CHANNELS 3 Zrotation Xrotation Yrotation
                          End Site
                          {
                            OFFSET 1.857 0 0
                          }
                        }
                      }
                    }
                  }
                  JOINT LeftInHandPinky
                  {
                    OFFSET 3.16105 0.469368 -1.20179
                    CHANNELS 3 Zrotation Xrotation Yrotation
                    JOINT LeftHandPinky1
                    {
                      OFFSET 4.14105 -0.022105 -1.09053
                      CHANNELS 3 Zrotation Xrotation Yrotation
                      JOINT LeftHandPinky2
                      {
                        OFFSET 2.75653 0 0
                        CHANNELS 3 Zrotation Xrotation Yrotation
                        JOINT LeftHandPinky3
                        {
                          OFFSET 1.74189 0 0
                          CHANNELS 3 Zrotation Xrotation Yrotation
                          End Site
                          {
                            OFFSET 1.645 0 0
                          }
                        }
                      }
                    }
                  }
                }
              }
            }
          }
        }
      }
    }
  }
}
MOTION
Frames:	4
Frame Time:	0.00833333
0 0 0 -0.52033 -2.7 154.927 -0.0412552 -10.623 3.71796 3.45402 8.08128 14.7952 0.83036 -1.8918 4.93685 25.624 -4.73814 -12.6222 -10.8894 24.943 26.1275 -18.3997 27.1224 23.7571 9.02445 18.4864 -41.123 1.14592 1.85178 -10.0269 0.968846 2.20639 -14.275 -0.758101 -0.574077 2.51054 -3.32223 -5.87855 31.8804 -11.5398 -3.20711 28.6261 3.38756 -21.1135 26.4448 53.8384 -4.37439 32.7098 25.0421 -27.2095 120.53 -16.0538 -76.4815 -19.4565 28.184 10.7294 19.1592 -2.92085e-15 1.03368e-14 -10 4.9399e-15 3.97569e-15 -10 4.77083e-15 1.03368e-14 -1.90833e-14 19.9818 0.871897 2.3964 24 -3.18055e-15 -6.36111e-15 20 -4.77083e-15 3.18055e-15 4.77083e-15 1.03368e-14 -1.90833e-14 20 7.15625e-15 9.54166e-15 24 6.36111e-15 -1.27222e-14 20 -3.18055e-15 -7.95139e-15 4.77083e-15 1.03368e-14 -1.90833e-14 19.9748 -1.02565 -2.81938 24 -6.36111e-15 1.27222e-14 20 -3.18055e-15 -4.77083e-15 4.77083e-15 1.03368e-14 -1.90833e-14 19.7815 -3.00948 -8.30515 24 -6.36111e-15 -6.36111e-15 20 -6.36111e-15 -1.27222e-14 165.195 -18.1475 -24.3131 8.55317 -10.2662 33.3898 -1.62341 30.2126 -122.294 0.76892 -20.302 -81.6835 -4.16539 -9.74323 -13.0877 -28.184 10.7294 -19.1592 1.31989e-14 -1.59028e-15 10 -1.13713e-14 9.54166e-15 10 -3.18055e-15 6.36111e-15 7.95139e-15 -19.9818 0.871897 -2.3964 -24 7.45443e-15 3.18055e-15 -20 1.19271e-14 2.22639e-14 -3.18055e-15 6.36111e-15 7.95139e-15 -20 -7.95139e-16 7.95139e-15 -24 -4.87022e-15 1.59028e-15 -20 0 3.97569e-14 -3.18055e-15 6.36111e-15 7.95139e-15 -19.9748 -1.02565 2.81938 -24 6.4605e-15 3.18055e-15 -20 -1.59028e-15 6.52014e-14 -3.18055e-15 6.36111e-15 7.95139e-15 -19.7815 -3.00948 8.30515 -24 5.1684e-15 -1.59028e-15 -20 -1.82882e-14 8.42847e-14 
0 0 0 -0.644536 -2.83315 155.02 -0.203089 -10.8688 3.65051 3.55401 8.11753 14.7492 0.753766 -1.81813 4.86914 25.5872 -4.79023 -12.5722 -10.8445 24.6028 26.158 -18.154 26.839 23.5455 9.06505 18.4676 -41.1183 1.15738 1.84868 -10.0259 0.98559 2.20586 -14.2731 -0.758161 -0.574112 2.51154 -3.32822 -5.88374 31.9494 -11.5536 -3.18526 28.5903 3.32382 -21.1579 26.4104 53.9589 -4.65152 32.4179 24.9573 -26.9299 120.553 -14.7758 -76.5214 -18.0439 28.184 10.7294 19.1592 -1.26212e-14 3.97569e-15 -10 -2.98303e-15 -3.18055e-15 -10 1.19271e-15 3.97569e-15 -3.18055e-15 19.9818 0.871897 2.3964 24 -1.59028e-15 -0 20 1.59028e-15 9.54166e-15 1.19271e-15 3.97569e-15 -3.18055e-15 20 3.57812e-15 6.36111e-15 24 3.18055e-15 -9.54166e-15 20 -3.18055e-15 -3.18055e-15 1.19271e-15 3.97569e-15 -3.18055e-15 19.9748 -1.02565 -2.81938 24 -6.36111e-15 1.27222e-14 20 -3.18055e-15 -1.59028e-15 1.19271e-15 3.97569e-15 -3.18055e-15 19.7815 -3.00948 -8.30515 24 0 -3.18055e-15 20 -9.54166e-15 -1.90833e-14 164.985 -17.9507 -24.0808 8.47662 -10.2785 33.3642 -1.66129 30.2517 -122.394 0.859397 -20.2279 -81.528 -4.08049 -9.67615 -13.1516 -28.184 10.7294 -19.1592 1.72697e-14 -6.36111e-15 10 -3.93064e-15 3.97569e-15 10 -3.18055e-15 -4.77083e-15 4.77083e-15 -19.9818 0.871897 -2.3964 -24 -3.8763e-15 -0 -20 -1.27222e-14 1.27222e-14 -3.18055e-15 -4.77083e-15 4.77083e-15 -20 -2.38542e-15 -6.36111e-15 -24 -3.27995e-15 -2.8625e-14 -20 -3.97569e-15 9.54166e-15 -3.18055e-15 -4.77083e-15 4.77083e-15 -19.9748 -1.02565 2.81938 -24 3.37934e-15 -1.90833e-14 -20 -9.54166e-15 2.54444e-14 -3.18055e-15 -4.77083e-15 4.77083e-15 -19.7815 -3.00948 8.30515 -24 8.74653e-15 -1.59028e-14 -20 -7.95139e-15 2.54444e-14 
0 0 0 -0.783245 -2.97806 155.143 -0.383013 -11.1349 3.5654 3.65691 8.14966 14.6971 0.674818 -1.75533 4.79777 25.5478 -4.83243 -12.509 -10.7754 24.1995 26.1827 -17.973 26.4919 23.3559 9.10872 18.4455 -41.1131 1.16989 1.84384 -10.0249 1.00404 2.20503 -14.2713 -0.758277 -0.574145 2.50741 -3.33481 -5.87829 31.7275 -11.544 -3.34595 28.6659 3.24313 -21.1983 26.3621 54.0608 -4.90117 32.1369 24.8908 -26.6736 120.557 -13.3989 -76.6495 -16.55 28.184 10.7294 19.1592 -1.83903e-15 1.59028e-15 -10 8.30373e-15 -5.56597e-15 -10 5.96354e-15 7.15625e-15 -6.36111e-15 19.9818 0.871897 2.3964 24 0 9.54166e-15 20 -1.59028e-15 1.43125e-14 5.96354e-15 7.15625e-15 -6.36111e-15 20 3.97569e-15 1.27222e-14 24 9.54166e-15 -6.36111e-15 20 0 -0 5.96354e-15 7.15625e-15 -6.36111e-15 19.9748 -1.02565 -2.81938 24 0 2.22639e-14 20 -3.18055e-15 1.11319e-14 5.96354e-15 7.15625e-15 -6.36111e-15 19.7815 -3.00948 -8.30515 24 3.18055e-15 3.18055e-15 20 -3.18055e-15 -9.54166e-15 164.709 -17.7754 -23.9308 8.39022 -10.308 33.3274 -1.69798 30.3039 -122.481 0.916708 -20.1542 -81.3707 -4.0138 -9.62375 -13.1987 -28.184 10.7294 -19.1592 4.35126e-15 -6.36111e-15 10 -1.51667e-14 -5.56597e-15 10 -3.18055e-15 6.36111e-15 -4.77083e-15 -19.9818 0.871897 -2.3964 -24 -5.06901e-15 3.18055e-14 -20 -9.54166e-15 -9.54166e-15 -3.18055e-15 6.36111e-15 -4.77083e-15 -20 -1.59028e-15 7.95139e-15 -24 1.2921e-15 6.36111e-15 -20 3.18055e-15 4.77083e-15 -3.18055e-15 6.36111e-15 -4.77083e-15 -19.9748 -1.02565 2.81938 -24 2.38542e-15 1.74931e-14 -20 5.56597e-15 6.36111e-15 -3.18055e-15 6.36111e-15 -4.77083e-15 -19.7815 -3.00948 8.30515 -24 4.96962e-15 2.38542e-14 -20 1.03368e-14 -3.65764e-14 
0 0 0 -0.932721 -3.12967 155.296 -0.580771 -11.4134 3.46684 3.76491 8.17826 14.6385 0.592428 -1.70315 4.71698 25.5017 -4.86166 -12.4195 -10.6713 23.7395 26.1748 -17.8319 26.1068 23.1837 9.15707 18.4241 -41.1128 1.18333 1.83749 -10.0242 1.02294 2.201 -14.2695 -0.758421 -0.574175 2.50082 -3.34131 -5.86607 31.3611 -11.5211 -3.59704 28.7968 3.15383 -21.2357 26.3105 54.1536 -5.13465 31.8614 24.8412 -26.4232 120.538 -11.8286 -76.7732 -14.9029 28.184 10.7294 19.1592 -5.45544e-15 3.97569e-15 -10 4.90608e-15 -7.95139e-16 -10 5.1684e-15 7.15625e-15 -3.18055e-15 19.9818 0.871897 2.3964 24 -3.18055e-15 -0 20 -1.59028e-15 9.54166e-15 5.1684e-15 7.15625e-15 -3.18055e-15 20 4.37326e-15 9.54166e-15 24 4.77083e-15 -1.90833e-14 20 3.18055e-15 -1.59028e-15 5.1684e-15 7.15625e-15 -3.18055e-15 19.9748 -1.02565 -2.81938 24 -3.18055e-15 9.54166e-15 20 -3.18055e-15 1.59028e-15 5.1684e-15 7.15625e-15 -3.18055e-15 19.7815 -3.00948 -8.30515 24 3.18055e-15 3.18055e-15 20 -3.18055e-15 -9.54166e-15 164.371 -17.5375 -23.8637 8.29572 -10.3469 33.2844 -1.7388 30.3625 -122.557 0.934303 -20.0716 -81.2019 -3.9605 -9.59294 -13.2356 -28.184 10.7294 -19.1592 3.29726e-15 -9.54166e-15 10 -3.51003e-15 1.59028e-15 10 2.64834e-31 4.77083e-15 -3.18055e-15 -19.9818 0.871897 -2.3964 -24 -4.27387e-15 -3.18055e-15 -20 -7.95139e-15 -6.36111e-15 2.64834e-31 4.77083e-15 -3.18055e-15 -20 1.59028e-15 3.18055e-15 -24 -2.68359e-15 -1.27222e-14 -20 7.15625e-15 -1.11319e-14 2.64834e-31 4.77083e-15 -3.18055e-15 -19.9748 -1.02565 2.81938 -24 1.78906e-15 -6.36111e-15 -20 4.77083e-15 -9.54166e-15 2.64834e-31 4.77083e-15 -3.18055e-15 -19.7815 -3.00948 8.30515 -24 1.14301e-14 -0 -20 1.03368e-14 -1.43125e-14 
